<mxfile host="app.diagrams.net" modified="2023-05-15T20:32:00.414Z" agent="Mozilla/5.0 (Windows NT 10.0; Win64; x64) AppleWebKit/537.36 (KHTML, like Gecko) Chrome/113.0.0.0 Safari/537.36" etag="FN-HaiVsgVuZaDlAfYKB" version="21.3.2" type="device">
  <diagram name="Page-1" id="2c0d36ab-eaac-3732-788b-9136903baeff">
    <mxGraphModel dx="1032" dy="557" grid="1" gridSize="10" guides="1" tooltips="1" connect="1" arrows="1" fold="1" page="1" pageScale="1.5" pageWidth="1100" pageHeight="850" background="none" math="0" shadow="0">
      <root>
        <mxCell id="0" />
        <mxCell id="1" parent="0" />
        <mxCell id="2" value="DASHBOARD" style="rounded=1;fillColor=#c908b2;gradientColor=none;strokeColor=none;fontColor=#FFFFFF;fontStyle=1;fontFamily=Tahoma;fontSize=17;" parent="1" vertex="1">
          <mxGeometry x="562" y="185.5" width="190" height="80" as="geometry" />
        </mxCell>
        <mxCell id="9" value="" style="edgeStyle=elbowEdgeStyle;elbow=vertical;strokeWidth=2;rounded=0;entryX=0.5;entryY=0;entryDx=0;entryDy=0;" parent="1" source="2" target="Kv2KkgJX7mqs0m7064dZ-138" edge="1">
          <mxGeometry x="337" y="215.5" width="100" height="100" as="geometry">
            <mxPoint x="337" y="315.5" as="sourcePoint" />
            <mxPoint x="1457" y="335.5" as="targetPoint" />
          </mxGeometry>
        </mxCell>
        <mxCell id="12" value="SECCIÓN PRINCIPAL" style="rounded=1;fillColor=#4e0a85;gradientColor=none;strokeColor=none;fontColor=#FFFFFF;fontStyle=1;fontFamily=Tahoma;fontSize=14" parent="1" vertex="1">
          <mxGeometry x="621.9999999999999" y="335.5" width="190" height="80" as="geometry" />
        </mxCell>
        <mxCell id="mhdIVnuPS63s6zJvj6qV-110" style="edgeStyle=orthogonalEdgeStyle;rounded=0;orthogonalLoop=1;jettySize=auto;html=1;exitX=0;exitY=0.5;exitDx=0;exitDy=0;entryX=0;entryY=0.5;entryDx=0;entryDy=0;strokeWidth=2;" edge="1" parent="1" source="13" target="mhdIVnuPS63s6zJvj6qV-104">
          <mxGeometry relative="1" as="geometry" />
        </mxCell>
        <mxCell id="mhdIVnuPS63s6zJvj6qV-112" style="edgeStyle=orthogonalEdgeStyle;rounded=0;orthogonalLoop=1;jettySize=auto;html=1;exitX=0;exitY=0.5;exitDx=0;exitDy=0;entryX=0;entryY=0.5;entryDx=0;entryDy=0;strokeWidth=2;" edge="1" parent="1" source="13" target="mhdIVnuPS63s6zJvj6qV-106">
          <mxGeometry relative="1" as="geometry" />
        </mxCell>
        <mxCell id="13" value="NAVBAR" style="rounded=1;fillColor=#4e0a85;gradientColor=none;strokeColor=none;fontColor=#FFFFFF;fontStyle=1;fontFamily=Tahoma;fontSize=15;" parent="1" vertex="1">
          <mxGeometry x="230" y="335.5" width="160" height="64.5" as="geometry" />
        </mxCell>
        <mxCell id="59" value="" style="edgeStyle=elbowEdgeStyle;elbow=vertical;strokeWidth=2;rounded=0" parent="1" source="2" target="12" edge="1">
          <mxGeometry x="347" y="225.5" width="100" height="100" as="geometry">
            <mxPoint x="861.9999999999999" y="275.5" as="sourcePoint" />
            <mxPoint x="1466.9999999999998" y="345.5" as="targetPoint" />
          </mxGeometry>
        </mxCell>
        <mxCell id="61" value="" style="edgeStyle=elbowEdgeStyle;elbow=vertical;strokeWidth=2;rounded=0" parent="1" source="2" target="13" edge="1">
          <mxGeometry x="-23" y="135.5" width="100" height="100" as="geometry">
            <mxPoint x="-23" y="235.5" as="sourcePoint" />
            <mxPoint x="77" y="135.5" as="targetPoint" />
          </mxGeometry>
        </mxCell>
        <mxCell id="100" value="" style="edgeStyle=elbowEdgeStyle;elbow=vertical;strokeWidth=2;rounded=0;entryX=0.5;entryY=0;entryDx=0;entryDy=0;" parent="1" source="12" target="Kv2KkgJX7mqs0m7064dZ-124" edge="1">
          <mxGeometry x="37" y="135.5" width="100" height="100" as="geometry">
            <mxPoint x="37" y="235.5" as="sourcePoint" />
            <mxPoint x="542" y="455.5" as="targetPoint" />
          </mxGeometry>
        </mxCell>
        <mxCell id="101" value="" style="edgeStyle=elbowEdgeStyle;elbow=vertical;strokeWidth=2;rounded=0" parent="1" source="12" edge="1">
          <mxGeometry x="37" y="135.5" width="100" height="100" as="geometry">
            <mxPoint x="37" y="235.5" as="sourcePoint" />
            <mxPoint x="717" y="455.5" as="targetPoint" />
          </mxGeometry>
        </mxCell>
        <mxCell id="102" value="" style="edgeStyle=elbowEdgeStyle;elbow=vertical;strokeWidth=2;rounded=0" parent="1" source="12" edge="1">
          <mxGeometry x="37" y="135.5" width="100" height="100" as="geometry">
            <mxPoint x="37" y="235.5" as="sourcePoint" />
            <mxPoint x="892" y="455.5" as="targetPoint" />
          </mxGeometry>
        </mxCell>
        <mxCell id="Kv2KkgJX7mqs0m7064dZ-127" style="edgeStyle=orthogonalEdgeStyle;rounded=0;orthogonalLoop=1;jettySize=auto;html=1;exitX=0;exitY=0.5;exitDx=0;exitDy=0;entryX=0;entryY=0.5;entryDx=0;entryDy=0;strokeWidth=2;" parent="1" source="Kv2KkgJX7mqs0m7064dZ-124" target="Kv2KkgJX7mqs0m7064dZ-125" edge="1">
          <mxGeometry relative="1" as="geometry">
            <Array as="points">
              <mxPoint x="460" y="486" />
              <mxPoint x="460" y="576" />
            </Array>
          </mxGeometry>
        </mxCell>
        <mxCell id="Kv2KkgJX7mqs0m7064dZ-128" style="edgeStyle=orthogonalEdgeStyle;rounded=0;orthogonalLoop=1;jettySize=auto;html=1;exitX=0;exitY=0.5;exitDx=0;exitDy=0;entryX=0;entryY=0.5;entryDx=0;entryDy=0;strokeWidth=2;" parent="1" source="Kv2KkgJX7mqs0m7064dZ-124" target="Kv2KkgJX7mqs0m7064dZ-126" edge="1">
          <mxGeometry relative="1" as="geometry">
            <Array as="points">
              <mxPoint x="460" y="486" />
              <mxPoint x="460" y="650" />
            </Array>
          </mxGeometry>
        </mxCell>
        <mxCell id="Kv2KkgJX7mqs0m7064dZ-124" value="FILTROS" style="rounded=1;fillColor=#23445D;gradientColor=none;strokeColor=none;fontColor=#FFFFFF;fontStyle=1;fontFamily=Tahoma;fontSize=14" parent="1" vertex="1">
          <mxGeometry x="470" y="455.5" width="130" height="60" as="geometry" />
        </mxCell>
        <mxCell id="Kv2KkgJX7mqs0m7064dZ-125" value="FAVORITOS" style="rounded=1;fillColor=#15ac8e;gradientColor=none;strokeColor=none;fontColor=#121212;fontStyle=1;fontFamily=Tahoma;fontSize=14" parent="1" vertex="1">
          <mxGeometry x="492" y="545.5" width="130" height="60" as="geometry" />
        </mxCell>
        <mxCell id="Kv2KkgJX7mqs0m7064dZ-126" value="RECOMENDADOS" style="rounded=1;fillColor=#15ac8e;gradientColor=none;strokeColor=none;fontColor=#121212;fontStyle=1;fontFamily=Tahoma;fontSize=14" parent="1" vertex="1">
          <mxGeometry x="492" y="620" width="130" height="60" as="geometry" />
        </mxCell>
        <mxCell id="Kv2KkgJX7mqs0m7064dZ-133" style="edgeStyle=orthogonalEdgeStyle;rounded=0;orthogonalLoop=1;jettySize=auto;html=1;exitX=0;exitY=0.5;exitDx=0;exitDy=0;entryX=0;entryY=0.5;entryDx=0;entryDy=0;strokeWidth=2;" parent="1" source="Kv2KkgJX7mqs0m7064dZ-129" target="Kv2KkgJX7mqs0m7064dZ-132" edge="1">
          <mxGeometry relative="1" as="geometry">
            <Array as="points">
              <mxPoint x="640" y="486" />
              <mxPoint x="640" y="726" />
            </Array>
          </mxGeometry>
        </mxCell>
        <mxCell id="Kv2KkgJX7mqs0m7064dZ-134" style="edgeStyle=orthogonalEdgeStyle;rounded=0;orthogonalLoop=1;jettySize=auto;html=1;exitX=0;exitY=0.5;exitDx=0;exitDy=0;entryX=0;entryY=0.5;entryDx=0;entryDy=0;strokeWidth=2;" parent="1" source="Kv2KkgJX7mqs0m7064dZ-129" target="Kv2KkgJX7mqs0m7064dZ-130" edge="1">
          <mxGeometry relative="1" as="geometry">
            <Array as="points">
              <mxPoint x="640" y="486" />
              <mxPoint x="640" y="576" />
            </Array>
          </mxGeometry>
        </mxCell>
        <mxCell id="Kv2KkgJX7mqs0m7064dZ-135" style="edgeStyle=orthogonalEdgeStyle;rounded=0;orthogonalLoop=1;jettySize=auto;html=1;exitX=0;exitY=0.5;exitDx=0;exitDy=0;entryX=0;entryY=0.5;entryDx=0;entryDy=0;strokeWidth=2;" parent="1" source="Kv2KkgJX7mqs0m7064dZ-129" target="Kv2KkgJX7mqs0m7064dZ-131" edge="1">
          <mxGeometry relative="1" as="geometry">
            <Array as="points">
              <mxPoint x="640" y="486" />
              <mxPoint x="640" y="650" />
            </Array>
          </mxGeometry>
        </mxCell>
        <mxCell id="Kv2KkgJX7mqs0m7064dZ-129" value="VISTA PREVIA &#xa;DE LAS RECETAS" style="rounded=1;fillColor=#23445D;gradientColor=none;strokeColor=none;fontColor=#FFFFFF;fontStyle=1;fontFamily=Tahoma;fontSize=14" parent="1" vertex="1">
          <mxGeometry x="652" y="455.5" width="130" height="60" as="geometry" />
        </mxCell>
        <mxCell id="Kv2KkgJX7mqs0m7064dZ-130" value="IMAGEN" style="rounded=1;fillColor=#15ac8e;gradientColor=none;strokeColor=none;fontColor=#121212;fontStyle=1;fontFamily=Tahoma;fontSize=14" parent="1" vertex="1">
          <mxGeometry x="687" y="545.5" width="130" height="60" as="geometry" />
        </mxCell>
        <mxCell id="Kv2KkgJX7mqs0m7064dZ-131" value="TÍTULO" style="rounded=1;fillColor=#15ac8e;gradientColor=none;strokeColor=none;fontColor=#121212;fontStyle=1;fontFamily=Tahoma;fontSize=14" parent="1" vertex="1">
          <mxGeometry x="687" y="620" width="130" height="60" as="geometry" />
        </mxCell>
        <mxCell id="Kv2KkgJX7mqs0m7064dZ-132" value="PUNTUACIÓN" style="rounded=1;fillColor=#15ac8e;gradientColor=none;strokeColor=none;fontColor=#121212;fontStyle=1;fontFamily=Tahoma;fontSize=14" parent="1" vertex="1">
          <mxGeometry x="687" y="695.5" width="130" height="60" as="geometry" />
        </mxCell>
        <mxCell id="Kv2KkgJX7mqs0m7064dZ-137" style="edgeStyle=orthogonalEdgeStyle;rounded=0;orthogonalLoop=1;jettySize=auto;html=1;exitX=0.5;exitY=1;exitDx=0;exitDy=0;entryX=1;entryY=0.5;entryDx=0;entryDy=0;strokeWidth=2;dashed=1;" parent="1" source="Kv2KkgJX7mqs0m7064dZ-136" target="Kv2KkgJX7mqs0m7064dZ-129" edge="1">
          <mxGeometry relative="1" as="geometry" />
        </mxCell>
        <mxCell id="Kv2KkgJX7mqs0m7064dZ-136" value="BARRA DE &#xa;DESPLAZAMIENTO&#xa;DE PÁGINAS" style="rounded=1;fillColor=#23445D;gradientColor=none;strokeColor=none;fontColor=#FFFFFF;fontStyle=1;fontFamily=Tahoma;fontSize=14" parent="1" vertex="1">
          <mxGeometry x="830" y="455.5" width="160" height="60" as="geometry" />
        </mxCell>
        <mxCell id="Kv2KkgJX7mqs0m7064dZ-138" value="FOOTER" style="rounded=1;fillColor=#4e0a85;gradientColor=none;strokeColor=none;fontColor=#FFFFFF;fontStyle=1;fontFamily=Tahoma;fontSize=14" parent="1" vertex="1">
          <mxGeometry x="960" y="335.5" width="190" height="80" as="geometry" />
        </mxCell>
        <mxCell id="mhdIVnuPS63s6zJvj6qV-102" value="PERFIL" style="rounded=1;fillColor=#15ac8e;gradientColor=none;strokeColor=none;fontColor=#121212;fontStyle=1;fontFamily=Tahoma;fontSize=14" vertex="1" parent="1">
          <mxGeometry x="270" y="495.5" width="100" height="50" as="geometry" />
        </mxCell>
        <mxCell id="mhdIVnuPS63s6zJvj6qV-109" style="edgeStyle=orthogonalEdgeStyle;rounded=0;orthogonalLoop=1;jettySize=auto;html=1;exitX=0;exitY=0.5;exitDx=0;exitDy=0;entryX=0;entryY=0.5;entryDx=0;entryDy=0;strokeWidth=2;" edge="1" parent="1" source="mhdIVnuPS63s6zJvj6qV-104" target="mhdIVnuPS63s6zJvj6qV-102">
          <mxGeometry relative="1" as="geometry" />
        </mxCell>
        <mxCell id="mhdIVnuPS63s6zJvj6qV-113" style="edgeStyle=orthogonalEdgeStyle;rounded=0;orthogonalLoop=1;jettySize=auto;html=1;exitX=0;exitY=0.5;exitDx=0;exitDy=0;entryX=0;entryY=0.5;entryDx=0;entryDy=0;strokeWidth=2;" edge="1" parent="1" source="mhdIVnuPS63s6zJvj6qV-104" target="mhdIVnuPS63s6zJvj6qV-107">
          <mxGeometry relative="1" as="geometry" />
        </mxCell>
        <mxCell id="mhdIVnuPS63s6zJvj6qV-114" style="edgeStyle=orthogonalEdgeStyle;rounded=0;orthogonalLoop=1;jettySize=auto;html=1;exitX=0;exitY=0.5;exitDx=0;exitDy=0;entryX=0;entryY=0.5;entryDx=0;entryDy=0;strokeWidth=2;" edge="1" parent="1" source="mhdIVnuPS63s6zJvj6qV-104" target="mhdIVnuPS63s6zJvj6qV-108">
          <mxGeometry relative="1" as="geometry" />
        </mxCell>
        <mxCell id="mhdIVnuPS63s6zJvj6qV-104" value="Cuenta" style="rounded=1;fillColor=#23445D;gradientColor=none;strokeColor=none;fontColor=#FFFFFF;fontStyle=1;fontFamily=Tahoma;fontSize=14" vertex="1" parent="1">
          <mxGeometry x="230" y="420" width="130" height="60" as="geometry" />
        </mxCell>
        <mxCell id="mhdIVnuPS63s6zJvj6qV-106" value="MIS FAVORITOS" style="rounded=1;fillColor=#15ac8e;gradientColor=none;strokeColor=none;fontColor=#121212;fontStyle=1;fontFamily=Tahoma;fontSize=14" vertex="1" parent="1">
          <mxGeometry x="270" y="555.5" width="130" height="54.5" as="geometry" />
        </mxCell>
        <mxCell id="mhdIVnuPS63s6zJvj6qV-107" value="PUBLICAR &#xa;NUEVA RECETA" style="rounded=1;fillColor=#15ac8e;gradientColor=none;strokeColor=none;fontColor=#121212;fontStyle=1;fontFamily=Tahoma;fontSize=14" vertex="1" parent="1">
          <mxGeometry x="270" y="625.5" width="130" height="54.5" as="geometry" />
        </mxCell>
        <mxCell id="mhdIVnuPS63s6zJvj6qV-108" value="´CERRAR SESIÓN" style="rounded=1;fillColor=#15ac8e;gradientColor=none;strokeColor=none;fontColor=#121212;fontStyle=1;fontFamily=Tahoma;fontSize=14" vertex="1" parent="1">
          <mxGeometry x="270" y="695.5" width="130" height="54.5" as="geometry" />
        </mxCell>
      </root>
    </mxGraphModel>
  </diagram>
</mxfile>
